<svg width="60" height="60" viewBox="0 0 60 60" fill="none" xmlns="http://www.w3.org/2000/svg">
<ellipse cx="30.4268" cy="18.3838" rx="8.01488" ry="10.0186" fill="url(#paint0_linear_15_630)"/>
<ellipse cx="15.3987" cy="40.4251" rx="8.01488" ry="10.0186" fill="url(#paint1_linear_15_630)"/>
<ellipse cx="44.4525" cy="40.4251" rx="8.01488" ry="10.0186" fill="url(#paint2_linear_15_630)"/>
<g filter="url(#filter0_bi_15_630)">
<mask id="path-4-inside-1_15_630" fill="white">
<path fill-rule="evenodd" clip-rule="evenodd" d="M7.39107 14.4064C7.69859 9.3887 17.7032 5.35986 30 5.35986C42.2968 5.35986 52.3015 9.3887 52.609 14.4064H52.6163V43.9266H52.6091C52.6139 44.0057 52.6164 44.0851 52.6164 44.1647C52.6164 49.2924 42.4907 53.4493 30.0001 53.4493C17.5095 53.4493 7.38388 49.2924 7.38388 44.1647C7.38388 44.0851 7.38632 44.0057 7.39118 43.9266H7.38384V14.6637C7.3838 14.6573 7.38379 14.6509 7.38379 14.6444C7.38379 14.638 7.3838 14.6316 7.38384 14.6252V14.4064H7.39107Z"/>
</mask>
<path fill-rule="evenodd" clip-rule="evenodd" d="M7.39107 14.4064C7.69859 9.3887 17.7032 5.35986 30 5.35986C42.2968 5.35986 52.3015 9.3887 52.609 14.4064H52.6163V43.9266H52.6091C52.6139 44.0057 52.6164 44.0851 52.6164 44.1647C52.6164 49.2924 42.4907 53.4493 30.0001 53.4493C17.5095 53.4493 7.38388 49.2924 7.38388 44.1647C7.38388 44.0851 7.38632 44.0057 7.39118 43.9266H7.38384V14.6637C7.3838 14.6573 7.38379 14.6509 7.38379 14.6444C7.38379 14.638 7.3838 14.6316 7.38384 14.6252V14.4064H7.39107Z" fill="#F1F1F1" fill-opacity="0.1"/>
<path fill-rule="evenodd" clip-rule="evenodd" d="M7.39107 14.4064C7.69859 9.3887 17.7032 5.35986 30 5.35986C42.2968 5.35986 52.3015 9.3887 52.609 14.4064H52.6163V43.9266H52.6091C52.6139 44.0057 52.6164 44.0851 52.6164 44.1647C52.6164 49.2924 42.4907 53.4493 30.0001 53.4493C17.5095 53.4493 7.38388 49.2924 7.38388 44.1647C7.38388 44.0851 7.38632 44.0057 7.39118 43.9266H7.38384V14.6637C7.3838 14.6573 7.38379 14.6509 7.38379 14.6444C7.38379 14.638 7.3838 14.6316 7.38384 14.6252V14.4064H7.39107Z" fill="url(#paint3_linear_15_630)" fill-opacity="0.2"/>
<path d="M7.39107 14.4064V15.4064H8.33166L8.3892 14.4676L7.39107 14.4064ZM52.609 14.4064L51.6109 14.4676L51.6684 15.4064H52.609V14.4064ZM52.6163 14.4064H53.6163V13.4064H52.6163V14.4064ZM52.6163 43.9266V44.9266H53.6163V43.9266H52.6163ZM52.6091 43.9266V42.9266H51.5459L51.611 43.9878L52.6091 43.9266ZM7.39118 43.9266L8.3893 43.9878L8.45437 42.9266H7.39118V43.9266ZM7.38384 43.9266H6.38384V44.9266H7.38384V43.9266ZM7.38384 14.6637L8.38385 14.6637L8.38382 14.6587L7.38384 14.6637ZM7.38384 14.6252L8.38384 14.6301V14.6252H7.38384ZM7.38384 14.4064V13.4064H6.38384V14.4064H7.38384ZM8.3892 14.4676C8.44524 13.5533 8.94751 12.5849 10.0026 11.6108C11.0578 10.6365 12.6034 9.71881 14.5717 8.92968C18.5044 7.35299 23.9482 6.35986 30 6.35986V4.35986C23.7551 4.35986 18.0482 5.38116 13.8275 7.07332C11.7191 7.91862 9.93728 8.94896 8.64585 10.1413C7.3543 11.3338 6.49067 12.7508 6.39295 14.3453L8.3892 14.4676ZM30 6.35986C36.0519 6.35986 41.4957 7.35299 45.4284 8.92968C47.3967 9.71881 48.9423 10.6365 49.9975 11.6108C51.0526 12.5849 51.5548 13.5533 51.6109 14.4676L53.6071 14.3453C53.5094 12.7508 52.6458 11.3338 51.3542 10.1413C50.0628 8.94896 48.281 7.91862 46.1726 7.07332C41.9519 5.38116 36.245 4.35986 30 4.35986V6.35986ZM52.6163 13.4064H52.609V15.4064H52.6163V13.4064ZM53.6163 43.9266V14.4064H51.6163V43.9266H53.6163ZM52.6091 44.9266H52.6163V42.9266H52.6091V44.9266ZM53.6164 44.1647C53.6164 44.0647 53.6133 43.9649 53.6072 43.8654L51.611 43.9878C51.6146 44.0466 51.6164 44.1055 51.6164 44.1647H53.6164ZM30.0001 54.4493C36.3428 54.4493 42.1317 53.3957 46.372 51.655C48.4898 50.7856 50.2695 49.725 51.5356 48.4963C52.8046 47.2645 53.6164 45.8005 53.6164 44.1647H51.6164C51.6164 45.0928 51.1624 46.0713 50.1426 47.0611C49.1197 48.0539 47.5874 48.994 45.6125 49.8048C41.6673 51.4244 36.148 52.4493 30.0001 52.4493V54.4493ZM6.38388 44.1647C6.38388 45.8005 7.19562 47.2645 8.4647 48.4963C9.73073 49.725 11.5105 50.7856 13.6283 51.655C17.8686 53.3957 23.6574 54.4493 30.0001 54.4493V52.4493C23.8522 52.4493 18.333 51.4244 14.3878 49.8048C12.4128 48.994 10.8805 48.0539 9.85766 47.0611C8.83785 46.0713 8.38388 45.0928 8.38388 44.1647H6.38388ZM6.39305 43.8654C6.38695 43.9649 6.38388 44.0646 6.38388 44.1647H8.38388C8.38388 44.1055 8.3857 44.0466 8.3893 43.9878L6.39305 43.8654ZM7.38384 44.9266H7.39118V42.9266H7.38384V44.9266ZM6.38384 14.6637V43.9266H8.38384V14.6637H6.38384ZM8.38382 14.6587C8.3838 14.654 8.38379 14.6492 8.38379 14.6444H6.38379C6.38379 14.6525 6.38381 14.6606 6.38385 14.6686L8.38382 14.6587ZM8.38379 14.6444C8.38379 14.6397 8.3838 14.6349 8.38382 14.6301L6.38385 14.6202C6.38381 14.6283 6.38379 14.6364 6.38379 14.6444H8.38379ZM6.38384 14.4064V14.6252H8.38384V14.4064H6.38384ZM7.39107 13.4064H7.38384V15.4064H7.39107V13.4064Z" fill="#F1F1F1" fill-opacity="0.1" mask="url(#path-4-inside-1_15_630)"/>
</g>
<path d="M52.5 37.5384C52.5 38.7474 51.9367 39.9397 50.8347 41.0687C49.7305 42.1999 48.1083 43.2416 46.0646 44.1272C41.9789 45.8977 36.2995 47.0051 30 47.0051C23.7004 47.0051 18.0211 45.8977 13.9353 44.1272C11.8917 43.2416 10.2694 42.1999 9.16526 41.0687C8.06332 39.9397 7.5 38.7474 7.5 37.5384C7.5 36.3295 8.06332 35.1372 9.16526 34.0082C10.2694 32.877 11.8917 31.8353 13.9353 30.9497C18.0211 29.1792 23.7004 28.0718 30 28.0718C36.2995 28.0718 41.9789 29.1792 46.0646 30.9497C48.1083 31.8353 49.7305 32.877 50.8347 34.0082C51.9367 35.1372 52.5 36.3295 52.5 37.5384Z" fill="#F1F1F1" fill-opacity="0.1"/>
<path d="M52.5 37.5384C52.5 38.7474 51.9367 39.9397 50.8347 41.0687C49.7305 42.1999 48.1083 43.2416 46.0646 44.1272C41.9789 45.8977 36.2995 47.0051 30 47.0051C23.7004 47.0051 18.0211 45.8977 13.9353 44.1272C11.8917 43.2416 10.2694 42.1999 9.16526 41.0687C8.06332 39.9397 7.5 38.7474 7.5 37.5384C7.5 36.3295 8.06332 35.1372 9.16526 34.0082C10.2694 32.877 11.8917 31.8353 13.9353 30.9497C18.0211 29.1792 23.7004 28.0718 30 28.0718C36.2995 28.0718 41.9789 29.1792 46.0646 30.9497C48.1083 31.8353 49.7305 32.877 50.8347 34.0082C51.9367 35.1372 52.5 36.3295 52.5 37.5384Z" fill="url(#paint4_linear_15_630)" fill-opacity="0.2"/>
<path d="M52.5 37.5384C52.5 38.7474 51.9367 39.9397 50.8347 41.0687C49.7305 42.1999 48.1083 43.2416 46.0646 44.1272C41.9789 45.8977 36.2995 47.0051 30 47.0051C23.7004 47.0051 18.0211 45.8977 13.9353 44.1272C11.8917 43.2416 10.2694 42.1999 9.16526 41.0687C8.06332 39.9397 7.5 38.7474 7.5 37.5384C7.5 36.3295 8.06332 35.1372 9.16526 34.0082C10.2694 32.877 11.8917 31.8353 13.9353 30.9497C18.0211 29.1792 23.7004 28.0718 30 28.0718C36.2995 28.0718 41.9789 29.1792 46.0646 30.9497C48.1083 31.8353 49.7305 32.877 50.8347 34.0082C51.9367 35.1372 52.5 36.3295 52.5 37.5384Z" stroke="url(#paint5_linear_15_630)"/>
<path d="M52.5 29.1052C52.5 31.7594 50.1748 34.3177 46.052 36.2417C41.9698 38.1467 36.295 39.3385 30 39.3385C23.7049 39.3385 18.0302 38.1467 13.948 36.2417C9.82515 34.3177 7.5 31.7594 7.5 29.1052C7.5 26.4509 9.82515 23.8926 13.948 21.9686C18.0302 20.0636 23.7049 18.8718 30 18.8718C36.295 18.8718 41.9698 20.0636 46.052 21.9686C50.1748 23.8926 52.5 26.4509 52.5 29.1052Z" fill="#F1F1F1" fill-opacity="0.1"/>
<path d="M52.5 29.1052C52.5 31.7594 50.1748 34.3177 46.052 36.2417C41.9698 38.1467 36.295 39.3385 30 39.3385C23.7049 39.3385 18.0302 38.1467 13.948 36.2417C9.82515 34.3177 7.5 31.7594 7.5 29.1052C7.5 26.4509 9.82515 23.8926 13.948 21.9686C18.0302 20.0636 23.7049 18.8718 30 18.8718C36.295 18.8718 41.9698 20.0636 46.052 21.9686C50.1748 23.8926 52.5 26.4509 52.5 29.1052Z" fill="url(#paint6_linear_15_630)" fill-opacity="0.2"/>
<path d="M52.5 29.1052C52.5 31.7594 50.1748 34.3177 46.052 36.2417C41.9698 38.1467 36.295 39.3385 30 39.3385C23.7049 39.3385 18.0302 38.1467 13.948 36.2417C9.82515 34.3177 7.5 31.7594 7.5 29.1052C7.5 26.4509 9.82515 23.8926 13.948 21.9686C18.0302 20.0636 23.7049 18.8718 30 18.8718C36.295 18.8718 41.9698 20.0636 46.052 21.9686C50.1748 23.8926 52.5 26.4509 52.5 29.1052Z" stroke="url(#paint7_linear_15_630)"/>
<path d="M52.5 22.2052C52.5 23.4142 51.9367 24.6065 50.8347 25.7354C49.7305 26.8667 48.1083 27.9083 46.0646 28.7939C41.9789 30.5644 36.2995 31.6719 30 31.6719C23.7004 31.6719 18.0211 30.5644 13.9353 28.7939C11.8917 27.9083 10.2694 26.8667 9.16526 25.7354C8.06332 24.6065 7.5 23.4142 7.5 22.2052C7.5 20.9962 8.06332 19.8039 9.16526 18.675C10.2694 17.5437 11.8917 16.5021 13.9353 15.6165C18.0211 13.846 23.7004 12.7385 30 12.7385C36.2995 12.7385 41.9789 13.846 46.0646 15.6165C48.1083 16.5021 49.7305 17.5437 50.8347 18.675C51.9367 19.8039 52.5 20.9962 52.5 22.2052Z" fill="#F1F1F1" fill-opacity="0.1"/>
<path d="M52.5 22.2052C52.5 23.4142 51.9367 24.6065 50.8347 25.7354C49.7305 26.8667 48.1083 27.9083 46.0646 28.7939C41.9789 30.5644 36.2995 31.6719 30 31.6719C23.7004 31.6719 18.0211 30.5644 13.9353 28.7939C11.8917 27.9083 10.2694 26.8667 9.16526 25.7354C8.06332 24.6065 7.5 23.4142 7.5 22.2052C7.5 20.9962 8.06332 19.8039 9.16526 18.675C10.2694 17.5437 11.8917 16.5021 13.9353 15.6165C18.0211 13.846 23.7004 12.7385 30 12.7385C36.2995 12.7385 41.9789 13.846 46.0646 15.6165C48.1083 16.5021 49.7305 17.5437 50.8347 18.675C51.9367 19.8039 52.5 20.9962 52.5 22.2052Z" fill="url(#paint8_linear_15_630)" fill-opacity="0.2"/>
<path d="M52.5 22.2052C52.5 23.4142 51.9367 24.6065 50.8347 25.7354C49.7305 26.8667 48.1083 27.9083 46.0646 28.7939C41.9789 30.5644 36.2995 31.6719 30 31.6719C23.7004 31.6719 18.0211 30.5644 13.9353 28.7939C11.8917 27.9083 10.2694 26.8667 9.16526 25.7354C8.06332 24.6065 7.5 23.4142 7.5 22.2052C7.5 20.9962 8.06332 19.8039 9.16526 18.675C10.2694 17.5437 11.8917 16.5021 13.9353 15.6165C18.0211 13.846 23.7004 12.7385 30 12.7385C36.2995 12.7385 41.9789 13.846 46.0646 15.6165C48.1083 16.5021 49.7305 17.5437 50.8347 18.675C51.9367 19.8039 52.5 20.9962 52.5 22.2052Z" stroke="url(#paint9_linear_15_630)"/>
<g opacity="0.5" filter="url(#filter1_bi_15_630)">
<ellipse cx="30" cy="14.6444" rx="22.6162" ry="9.28456" fill="url(#paint10_linear_15_630)"/>
</g>
<defs>
<filter id="filter0_bi_15_630" x="-2.21026" y="-4.23419" width="64.4207" height="67.2775" filterUnits="userSpaceOnUse" color-interpolation-filters="sRGB">
<feFlood flood-opacity="0" result="BackgroundImageFix"/>
<feGaussianBlur in="BackgroundImageFix" stdDeviation="4.79703"/>
<feComposite in2="SourceAlpha" operator="in" result="effect1_backgroundBlur_15_630"/>
<feBlend mode="normal" in="SourceGraphic" in2="effect1_backgroundBlur_15_630" result="shape"/>
<feColorMatrix in="SourceAlpha" type="matrix" values="0 0 0 0 0 0 0 0 0 0 0 0 0 0 0 0 0 0 127 0" result="hardAlpha"/>
<feOffset dy="3.19802"/>
<feGaussianBlur stdDeviation="2.39851"/>
<feComposite in2="hardAlpha" operator="arithmetic" k2="-1" k3="1"/>
<feColorMatrix type="matrix" values="0 0 0 0 0.341176 0 0 0 0 0.643137 0 0 0 0 1 0 0 0 0.4 0"/>
<feBlend mode="normal" in2="shape" result="effect2_innerShadow_15_630"/>
</filter>
<filter id="filter1_bi_15_630" x="-2.21026" y="-4.23419" width="64.4206" height="37.7572" filterUnits="userSpaceOnUse" color-interpolation-filters="sRGB">
<feFlood flood-opacity="0" result="BackgroundImageFix"/>
<feGaussianBlur in="BackgroundImageFix" stdDeviation="4.79703"/>
<feComposite in2="SourceAlpha" operator="in" result="effect1_backgroundBlur_15_630"/>
<feBlend mode="normal" in="SourceGraphic" in2="effect1_backgroundBlur_15_630" result="shape"/>
<feColorMatrix in="SourceAlpha" type="matrix" values="0 0 0 0 0 0 0 0 0 0 0 0 0 0 0 0 0 0 127 0" result="hardAlpha"/>
<feOffset dy="3.19802"/>
<feGaussianBlur stdDeviation="2.39851"/>
<feComposite in2="hardAlpha" operator="arithmetic" k2="-1" k3="1"/>
<feColorMatrix type="matrix" values="0 0 0 0 0.341176 0 0 0 0 0.643137 0 0 0 0 1 0 0 0 0.4 0"/>
<feBlend mode="normal" in2="shape" result="effect2_innerShadow_15_630"/>
</filter>
<linearGradient id="paint0_linear_15_630" x1="23.0798" y1="12.3727" x2="40.6735" y2="14.3275" gradientUnits="userSpaceOnUse">
<stop stop-color="#AC87EB"/>
<stop offset="1" stop-color="#DF76EA"/>
</linearGradient>
<linearGradient id="paint1_linear_15_630" x1="8.05174" y1="34.4139" x2="25.6454" y2="36.3688" gradientUnits="userSpaceOnUse">
<stop stop-color="#2129EF"/>
<stop offset="1" stop-color="#AEA8F1"/>
</linearGradient>
<linearGradient id="paint2_linear_15_630" x1="37.1055" y1="34.4139" x2="54.6992" y2="36.3688" gradientUnits="userSpaceOnUse">
<stop stop-color="#21D6EF"/>
<stop offset="1" stop-color="#96FFC7"/>
</linearGradient>
<linearGradient id="paint3_linear_15_630" x1="9.26848" y1="14.9777" x2="58.6835" y2="21.4332" gradientUnits="userSpaceOnUse">
<stop stop-color="#22D7F0"/>
<stop offset="1" stop-color="#8940FF"/>
</linearGradient>
<linearGradient id="paint4_linear_15_630" x1="8.91667" y1="31.5584" x2="55.2663" y2="46.4141" gradientUnits="userSpaceOnUse">
<stop stop-color="white"/>
<stop offset="1" stop-color="#DFCCFF"/>
</linearGradient>
<linearGradient id="paint5_linear_15_630" x1="28.9048" y1="22.8507" x2="28.2275" y2="49.0613" gradientUnits="userSpaceOnUse">
<stop stop-color="white" stop-opacity="0"/>
<stop offset="0.398137" stop-color="white"/>
<stop offset="1" stop-color="white"/>
</linearGradient>
<linearGradient id="paint6_linear_15_630" x1="8.91667" y1="22.6652" x2="55.8689" y2="36.639" gradientUnits="userSpaceOnUse">
<stop stop-color="white"/>
<stop offset="1" stop-color="#DFCCFF"/>
</linearGradient>
<linearGradient id="paint7_linear_15_630" x1="28.9048" y1="13.2876" x2="28.1194" y2="41.5114" gradientUnits="userSpaceOnUse">
<stop stop-color="white" stop-opacity="0"/>
<stop offset="0.398137" stop-color="white"/>
<stop offset="1" stop-color="white"/>
</linearGradient>
<linearGradient id="paint8_linear_15_630" x1="8.91667" y1="16.2252" x2="55.2663" y2="31.0809" gradientUnits="userSpaceOnUse">
<stop stop-color="white"/>
<stop offset="1" stop-color="#DFCCFF"/>
</linearGradient>
<linearGradient id="paint9_linear_15_630" x1="28.9048" y1="7.51747" x2="28.2275" y2="33.728" gradientUnits="userSpaceOnUse">
<stop stop-color="white" stop-opacity="0"/>
<stop offset="0.398137" stop-color="white"/>
<stop offset="1" stop-color="white"/>
</linearGradient>
<linearGradient id="paint10_linear_15_630" x1="9.26848" y1="9.07369" x2="54.3651" y2="24.3307" gradientUnits="userSpaceOnUse">
<stop stop-color="#21D6EF" stop-opacity="0.3"/>
<stop offset="1" stop-color="#6200FF" stop-opacity="0.3"/>
</linearGradient>
</defs>
</svg>
