<svg width="60" height="61" viewBox="0 0 60 61" fill="none" xmlns="http://www.w3.org/2000/svg">
<path d="M7 30.5076H30V53.5076H15.6889C10.8901 53.5076 7 49.6174 7 44.8187V30.5076Z" fill="url(#paint0_linear_15_759)"/>
<g filter="url(#filter0_bi_15_759)">
<mask id="path-2-inside-1_15_759" fill="white">
<path fill-rule="evenodd" clip-rule="evenodd" d="M21.3116 30.5076H30V23.1794C29.2482 23.6143 28.3754 23.8632 27.4445 23.8632C24.6217 23.8632 22.3334 21.5749 22.3334 18.7521C22.3334 15.9293 24.6217 13.641 27.4445 13.641C28.3754 13.641 29.2482 13.8899 30 14.3247V7.50757H15.6889C10.8901 7.50757 7 11.3977 7 16.1965V30.5076H15.1773C13.9361 31.4401 13.1333 32.9245 13.1333 34.5964C13.1333 37.4192 15.4217 39.7076 18.2444 39.7076C21.0672 39.7076 23.3556 37.4192 23.3556 34.5964C23.3556 32.9245 22.5528 31.4401 21.3116 30.5076Z"/>
</mask>
<path fill-rule="evenodd" clip-rule="evenodd" d="M21.3116 30.5076H30V23.1794C29.2482 23.6143 28.3754 23.8632 27.4445 23.8632C24.6217 23.8632 22.3334 21.5749 22.3334 18.7521C22.3334 15.9293 24.6217 13.641 27.4445 13.641C28.3754 13.641 29.2482 13.8899 30 14.3247V7.50757H15.6889C10.8901 7.50757 7 11.3977 7 16.1965V30.5076H15.1773C13.9361 31.4401 13.1333 32.9245 13.1333 34.5964C13.1333 37.4192 15.4217 39.7076 18.2444 39.7076C21.0672 39.7076 23.3556 37.4192 23.3556 34.5964C23.3556 32.9245 22.5528 31.4401 21.3116 30.5076Z" fill="url(#paint1_linear_15_759)"/>
<path d="M30 30.5076V31.5076H31V30.5076H30ZM21.3116 30.5076V29.5076H18.3159L20.711 31.3071L21.3116 30.5076ZM30 23.1794H31V21.4457L29.4993 22.3138L30 23.1794ZM30 14.3247L29.4993 15.1903L31 16.0584V14.3247H30ZM30 7.50757H31V6.50757H30V7.50757ZM7 30.5076H6V31.5076H7V30.5076ZM15.1773 30.5076L15.7779 31.3071L18.173 29.5076H15.1773V30.5076ZM30 29.5076H21.3116V31.5076H30V29.5076ZM29 23.1794V30.5076H31V23.1794H29ZM27.4445 24.8632C28.5559 24.8632 29.6008 24.5656 30.5007 24.0451L29.4993 22.3138C28.8956 22.663 28.1949 22.8632 27.4445 22.8632V24.8632ZM21.3334 18.7521C21.3334 22.1272 24.0694 24.8632 27.4445 24.8632V22.8632C25.174 22.8632 23.3334 21.0226 23.3334 18.7521H21.3334ZM27.4445 12.641C24.0694 12.641 21.3334 15.377 21.3334 18.7521H23.3334C23.3334 16.4816 25.174 14.641 27.4445 14.641V12.641ZM30.5007 13.4591C29.6008 12.9386 28.5559 12.641 27.4445 12.641V14.641C28.1949 14.641 28.8956 14.8411 29.4993 15.1903L30.5007 13.4591ZM29 7.50757V14.3247H31V7.50757H29ZM15.6889 8.50757H30V6.50757H15.6889V8.50757ZM8 16.1965C8 11.95 11.4424 8.50757 15.6889 8.50757V6.50757C10.3379 6.50757 6 10.8454 6 16.1965H8ZM8 30.5076V16.1965H6V30.5076H8ZM15.1773 29.5076H7V31.5076H15.1773V29.5076ZM14.1333 34.5964C14.1333 33.2523 14.7774 32.0588 15.7779 31.3071L14.5766 29.7081C13.0949 30.8213 12.1333 32.5967 12.1333 34.5964H14.1333ZM18.2444 38.7076C15.9739 38.7076 14.1333 36.867 14.1333 34.5964H12.1333C12.1333 37.9715 14.8694 40.7076 18.2444 40.7076V38.7076ZM22.3556 34.5964C22.3556 36.867 20.515 38.7076 18.2444 38.7076V40.7076C21.6195 40.7076 24.3556 37.9715 24.3556 34.5964H22.3556ZM20.711 31.3071C21.7115 32.0588 22.3556 33.2523 22.3556 34.5964H24.3556C24.3556 32.5967 23.394 30.8213 21.9123 29.7081L20.711 31.3071Z" fill="#F1F1F1" fill-opacity="0.1" mask="url(#path-2-inside-1_15_759)"/>
<path d="M30 30.5076V31.5076H31V30.5076H30ZM21.3116 30.5076V29.5076H18.3159L20.711 31.3071L21.3116 30.5076ZM30 23.1794H31V21.4457L29.4993 22.3138L30 23.1794ZM30 14.3247L29.4993 15.1903L31 16.0584V14.3247H30ZM30 7.50757H31V6.50757H30V7.50757ZM7 30.5076H6V31.5076H7V30.5076ZM15.1773 30.5076L15.7779 31.3071L18.173 29.5076H15.1773V30.5076ZM30 29.5076H21.3116V31.5076H30V29.5076ZM29 23.1794V30.5076H31V23.1794H29ZM27.4445 24.8632C28.5559 24.8632 29.6008 24.5656 30.5007 24.0451L29.4993 22.3138C28.8956 22.663 28.1949 22.8632 27.4445 22.8632V24.8632ZM21.3334 18.7521C21.3334 22.1272 24.0694 24.8632 27.4445 24.8632V22.8632C25.174 22.8632 23.3334 21.0226 23.3334 18.7521H21.3334ZM27.4445 12.641C24.0694 12.641 21.3334 15.377 21.3334 18.7521H23.3334C23.3334 16.4816 25.174 14.641 27.4445 14.641V12.641ZM30.5007 13.4591C29.6008 12.9386 28.5559 12.641 27.4445 12.641V14.641C28.1949 14.641 28.8956 14.8411 29.4993 15.1903L30.5007 13.4591ZM29 7.50757V14.3247H31V7.50757H29ZM15.6889 8.50757H30V6.50757H15.6889V8.50757ZM8 16.1965C8 11.95 11.4424 8.50757 15.6889 8.50757V6.50757C10.3379 6.50757 6 10.8454 6 16.1965H8ZM8 30.5076V16.1965H6V30.5076H8ZM15.1773 29.5076H7V31.5076H15.1773V29.5076ZM14.1333 34.5964C14.1333 33.2523 14.7774 32.0588 15.7779 31.3071L14.5766 29.7081C13.0949 30.8213 12.1333 32.5967 12.1333 34.5964H14.1333ZM18.2444 38.7076C15.9739 38.7076 14.1333 36.867 14.1333 34.5964H12.1333C12.1333 37.9715 14.8694 40.7076 18.2444 40.7076V38.7076ZM22.3556 34.5964C22.3556 36.867 20.515 38.7076 18.2444 38.7076V40.7076C21.6195 40.7076 24.3556 37.9715 24.3556 34.5964H22.3556ZM20.711 31.3071C21.7115 32.0588 22.3556 33.2523 22.3556 34.5964H24.3556C24.3556 32.5967 23.394 30.8213 21.9123 29.7081L20.711 31.3071Z" fill="url(#paint2_linear_15_759)" fill-opacity="0.2" mask="url(#path-2-inside-1_15_759)"/>
</g>
<path fill-rule="evenodd" clip-rule="evenodd" d="M30 23.1794L30 30.5076L37.3281 30.5076C36.8933 29.7558 36.6444 28.8831 36.6444 27.9522C36.6444 25.1294 38.9328 22.8411 41.7556 22.8411C44.5783 22.8411 46.8667 25.1294 46.8667 27.9522C46.8667 28.8831 46.6178 29.7558 46.183 30.5076L53 30.5076L53 16.1965C53 11.3977 49.1099 7.50757 44.3111 7.50757L30 7.50757L30 14.3247C29.2482 13.8899 28.3754 13.641 27.4445 13.641C24.6217 13.641 22.3334 15.9293 22.3334 18.7521C22.3334 21.5749 24.6217 23.8632 27.4445 23.8632C28.3754 23.8632 29.2482 23.6143 30 23.1794Z" fill="url(#paint3_linear_15_759)"/>
<path d="M42.0111 35.1077L44.1508 40.8902L49.9333 43.0299L44.1508 45.1696L42.0111 50.9521L39.8714 45.1696L34.0889 43.0299L39.8714 40.8902L42.0111 35.1077Z" fill="url(#paint4_linear_15_759)"/>
<defs>
<filter id="filter0_bi_15_759" x="-0.369399" y="0.138169" width="37.7388" height="46.9387" filterUnits="userSpaceOnUse" color-interpolation-filters="sRGB">
<feFlood flood-opacity="0" result="BackgroundImageFix"/>
<feGaussianBlur in="BackgroundImageFix" stdDeviation="3.6847"/>
<feComposite in2="SourceAlpha" operator="in" result="effect1_backgroundBlur_15_759"/>
<feBlend mode="normal" in="SourceGraphic" in2="effect1_backgroundBlur_15_759" result="shape"/>
<feColorMatrix in="SourceAlpha" type="matrix" values="0 0 0 0 0 0 0 0 0 0 0 0 0 0 0 0 0 0 127 0" result="hardAlpha"/>
<feOffset dy="2.45647"/>
<feGaussianBlur stdDeviation="10.55"/>
<feComposite in2="hardAlpha" operator="arithmetic" k2="-1" k3="1"/>
<feColorMatrix type="matrix" values="0 0 0 0 0.341176 0 0 0 0 0.643137 0 0 0 0 1 0 0 0 0.4 0"/>
<feBlend mode="normal" in2="shape" result="effect2_innerShadow_15_759"/>
</filter>
<linearGradient id="paint0_linear_15_759" x1="10.6316" y1="34.4193" x2="27.8281" y2="39.9242" gradientUnits="userSpaceOnUse">
<stop stop-color="#DAE9FF"/>
<stop offset="1" stop-color="#E9DCFF"/>
</linearGradient>
<linearGradient id="paint1_linear_15_759" x1="38.5153" y1="-8.03567" x2="47.5823" y2="41.5637" gradientUnits="userSpaceOnUse">
<stop offset="0.24238" stop-color="#5498FF"/>
<stop offset="1" stop-color="#A131F9" stop-opacity="0"/>
</linearGradient>
<linearGradient id="paint2_linear_15_759" x1="7.95833" y1="13.9476" x2="33.2648" y2="16.4581" gradientUnits="userSpaceOnUse">
<stop stop-color="#5498FF"/>
<stop offset="1" stop-color="#8940FF"/>
</linearGradient>
<linearGradient id="paint3_linear_15_759" x1="47.7843" y1="11.1391" x2="43.4806" y2="29.0646" gradientUnits="userSpaceOnUse">
<stop stop-color="#DAE9FF"/>
<stop offset="1" stop-color="#E9DCFF"/>
</linearGradient>
<linearGradient id="paint4_linear_15_759" x1="34.0889" y1="35.1077" x2="54.5162" y2="47.0015" gradientUnits="userSpaceOnUse">
<stop offset="0.24238" stop-color="#5498FF"/>
<stop offset="1" stop-color="#A131F9"/>
</linearGradient>
</defs>
</svg>
